<svg xmlns="http://www.w3.org/2000/svg" height="auto" viewBox="0 0 700 240" width="700"><rect width="100%" height="100%" fill="#fff"/><defs><ellipse id="note" rx="14" ry="10" transform="rotate(-20)"/><path id="hh" stroke="#000" stroke-width="2.5" d="m-10-10 20 20m-20 0 20-20"/></defs><path stroke="#000" stroke-width="1.5" d="M40 70h630M40 90h630M40 110h630M40 130h630M40 150h630"/><path stroke="#000" stroke-width="3" d="M40 70v80"/><path stroke="#000" stroke-width="1.5" d="M660 70v80"/><path stroke="#000" stroke-width="4" d="M666 70v80"/><path d="M60 90h4v40h-4zm10 0h4v40h-4z"/><text x="90" y="108" font-family="serif" font-size="42" font-weight="bold">4</text><text x="90" y="148" font-family="serif" font-size="42" font-weight="bold">4</text><text x="8" y="64" fill="#666" font-family="sans-serif" font-size="12" font-weight="bold">H.H.</text><text x="8" y="104" fill="#666" font-family="sans-serif" font-size="12" font-weight="bold">S.D.</text><text x="8" y="144" fill="#666" font-family="sans-serif" font-size="12" font-weight="bold">B.D.</text><path d="M155 10h180v5H155zm240 0h180v5H395z"/><use x="150" y="60" href="#hh"/><path stroke="#000" stroke-width="1.5" d="M155 60V10"/><use x="210" y="60" href="#hh"/><path stroke="#000" stroke-width="1.5" d="M215 60V10"/><use x="270" y="60" href="#hh"/><path stroke="#000" stroke-width="1.5" d="M275 60V10"/><use x="330" y="60" href="#hh"/><path stroke="#000" stroke-width="1.5" d="M335 60V10"/><use x="390" y="60" href="#hh"/><path stroke="#000" stroke-width="1.5" d="M395 60V10"/><use x="450" y="60" href="#hh"/><path stroke="#000" stroke-width="1.5" d="M455 60V10"/><use x="510" y="60" href="#hh"/><path stroke="#000" stroke-width="1.5" d="M515 60V10"/><use x="570" y="60" href="#hh"/><path stroke="#000" stroke-width="1.5" d="M575 60V10"/><use x="270" y="100" href="#note"/><path stroke="#000" stroke-width="1.5" d="M284 100V10"/><use x="510" y="100" href="#note"/><path stroke="#000" stroke-width="1.5" d="M524 100V10"/><use x="150" y="140" href="#note"/><path stroke="#000" stroke-width="1.5" d="M136 140v50"/><use x="390" y="140" href="#note"/><path stroke="#000" stroke-width="1.5" d="M376 140v50"/><use x="450" y="140" href="#note"/><path stroke="#000" stroke-width="1.5" d="M436 140v50"/><path d="M376 190h60v5h-60z"/></svg>