<svg xmlns="http://www.w3.org/2000/svg" viewBox="0 0 600 420" width="600" height="420"><defs><marker id="arrow-dark" markerHeight="6" markerWidth="6" orient="auto" refX="9" refY="5" viewBox="0 0 10 10"><path fill="#424242" d="m0 0 10 5-10 5z"/></marker><marker id="arrow-light" markerHeight="6" markerWidth="6" orient="auto" refX="9" refY="5" viewBox="0 0 10 10"><path fill="#999" d="m0 0 10 5-10 5z"/></marker></defs><rect width="100%" height="100%" fill="#fff"/><text x="60" y="215" fill="#424242" font-family="sans-serif" font-size="16" font-weight="bold" text-anchor="end">x[n]</text><path stroke="#424242" stroke-width="2" d="M70 210h50"/><circle cx="120" cy="210" r="4" fill="#424242"/><path stroke="#424242" stroke-width="2" d="M120 60v300"/><path stroke="#424242" stroke-width="2" marker-end="url(#arrow-dark)" d="M120 60h35"/><rect width="100" height="40" x="160" y="40" fill="none" stroke="#424242" stroke-width="2" rx="4"/><text x="210" y="65" fill="#424242" font-family="sans-serif" font-size="14" font-weight="bold" text-anchor="middle">BPF 1</text><path stroke="#999" stroke-width="2" marker-end="url(#arrow-light)" d="M260 60h50"/><text x="325" y="65" fill="#424242" font-family="sans-serif" font-size="14" font-weight="bold">y<tspan baseline-shift="sub" font-size="10">1</tspan>[n]</text><text x="390" y="65" fill="#999" font-family="sans-serif" font-size="14">Band 1 (Low)</text><path stroke="#424242" stroke-width="2" marker-end="url(#arrow-dark)" d="M120 120h35"/><rect width="100" height="40" x="160" y="100" fill="none" stroke="#424242" stroke-width="2" rx="4"/><text x="210" y="125" fill="#424242" font-family="sans-serif" font-size="14" font-weight="bold" text-anchor="middle">BPF 2</text><path stroke="#999" stroke-width="2" marker-end="url(#arrow-light)" d="M260 120h50"/><text x="325" y="125" fill="#424242" font-family="sans-serif" font-size="14" font-weight="bold">y<tspan baseline-shift="sub" font-size="10">2</tspan>[n]</text><text x="390" y="125" fill="#999" font-family="sans-serif" font-size="14">Band 2</text><path stroke="#424242" stroke-width="2" marker-end="url(#arrow-dark)" d="M120 180h35"/><rect width="100" height="40" x="160" y="160" fill="none" stroke="#424242" stroke-width="2" rx="4"/><text x="210" y="185" fill="#424242" font-family="sans-serif" font-size="14" font-weight="bold" text-anchor="middle">BPF 3</text><path stroke="#999" stroke-width="2" marker-end="url(#arrow-light)" d="M260 180h50"/><text x="325" y="185" fill="#424242" font-family="sans-serif" font-size="14" font-weight="bold">y<tspan baseline-shift="sub" font-size="10">3</tspan>[n]</text><text x="390" y="185" fill="#999" font-family="sans-serif" font-size="14">Band 3</text><text x="210" y="245" fill="#999" font-family="sans-serif" font-size="20" text-anchor="middle">⋮</text><path stroke="#424242" stroke-width="2" marker-end="url(#arrow-dark)" d="M120 300h35"/><rect width="100" height="40" x="160" y="280" fill="none" stroke="#424242" stroke-width="2" rx="4"/><text x="210" y="305" fill="#424242" font-family="sans-serif" font-size="14" font-weight="bold" text-anchor="middle">BPF n-1</text><path stroke="#999" stroke-width="2" marker-end="url(#arrow-light)" d="M260 300h50"/><text x="325" y="305" fill="#424242" font-family="sans-serif" font-size="14" font-weight="bold">y<tspan baseline-shift="sub" font-size="10">n-1</tspan>[n]</text><text x="390" y="305" fill="#999" font-family="sans-serif" font-size="14">Band n-1</text><path stroke="#424242" stroke-width="2" marker-end="url(#arrow-dark)" d="M120 360h35"/><rect width="100" height="40" x="160" y="340" fill="none" stroke="#424242" stroke-width="2" rx="4"/><text x="210" y="365" fill="#424242" font-family="sans-serif" font-size="14" font-weight="bold" text-anchor="middle">BPF n</text><path stroke="#999" stroke-width="2" marker-end="url(#arrow-light)" d="M260 360h50"/><text x="325" y="365" fill="#424242" font-family="sans-serif" font-size="14" font-weight="bold">y<tspan baseline-shift="sub" font-size="10">n</tspan>[n]</text><text x="390" y="365" fill="#999" font-family="sans-serif" font-size="14">Band n (High)</text></svg>