<svg xmlns="http://www.w3.org/2000/svg" viewBox="0 0 800 300" width="800" height="300"><rect width="100%" height="100%" fill="#fff"/><path fill="none" stroke="#999" stroke-linejoin="round" stroke-width="3" d="m120 180 40-110 60 40h300l120 70"/><path stroke="#999" stroke-width="2" d="M80 180h640"/><path fill="#999" d="m710 175 10 5-10 5z"/><text x="710" y="200" fill="#999" font-family="sans-serif" font-size="12" text-anchor="end">Time</text><path stroke="#424242" stroke-dasharray="4 4" stroke-width="2" d="M120 60v120"/><path fill="#424242" d="m115 170 5 10 5-10z"/><text x="120" y="35" fill="#424242" font-family="sans-serif" font-size="16" font-weight="bold" text-anchor="middle">Note On</text><text x="120" y="52" fill="#999" font-family="sans-serif" font-size="12" text-anchor="middle">Key Pressed</text><path stroke="#424242" stroke-dasharray="4 4" stroke-width="2" d="M520 60v120"/><path fill="#424242" d="m515 120 5-10 5 10z"/><text x="520" y="35" fill="#424242" font-family="sans-serif" font-size="16" font-weight="bold" text-anchor="middle">Note Off</text><text x="520" y="52" fill="#999" font-family="sans-serif" font-size="12" text-anchor="middle">Key Released</text><path fill="none" stroke="#424242" stroke-width="2" d="M120 195v10h400v-10"/><text x="320" y="222" fill="#424242" font-family="sans-serif" font-size="14" font-weight="bold" text-anchor="middle">Gate Time</text><path fill="none" stroke="#999" stroke-width="2" d="M120 240v10h520v-10"/><path stroke="#999" stroke-dasharray="2 2" d="M640 180v70"/><text x="380" y="267" fill="#999" font-family="sans-serif" font-size="14" font-weight="bold" text-anchor="middle">Duration (Gate Time + Release Time)</text></svg>