<svg xmlns="http://www.w3.org/2000/svg" viewBox="0 0 800 260" width="800" height="260"><rect width="100%" height="100%" fill="#fff"/><text x="400" y="40" fill="#424242" font-family="sans-serif" font-size="20" font-weight="bold" text-anchor="middle">System Exclusive Message Structure (Variable Length)</text><rect width="140" height="80" x="40" y="70" fill="none" stroke="#424242" stroke-width="2" rx="4"/><text x="110" y="95" fill="#424242" font-family="sans-serif" font-size="14" font-weight="bold" text-anchor="middle">Start (SysEx)</text><text x="110" y="115" fill="#999" font-family="monospace" font-size="16" text-anchor="middle">1111 0000</text><text x="110" y="135" fill="#999" font-family="monospace" font-size="14" text-anchor="middle">(F0 h)</text><rect width="140" height="80" x="200" y="70" fill="none" stroke="#999" stroke-width="2" rx="4"/><text x="270" y="95" fill="#424242" font-family="sans-serif" font-size="14" font-weight="bold" text-anchor="middle">Mfr ID</text><text x="270" y="115" fill="#999" font-family="monospace" font-size="14" text-anchor="middle">0iii iiii</text><text x="270" y="135" fill="#999" font-family="sans-serif" font-size="12" text-anchor="middle">ID Number</text><rect width="160" height="80" x="360" y="70" fill="none" stroke="#999" stroke-width="2" rx="4"/><text x="440" y="95" fill="#424242" font-family="sans-serif" font-size="14" font-weight="bold" text-anchor="middle">Data / Device ID</text><text x="440" y="115" fill="#999" font-family="monospace" font-size="14" text-anchor="middle">0ddd dddd</text><text x="440" y="135" fill="#999" font-family="sans-serif" font-size="12" text-anchor="middle">Vendor Specific</text><circle cx="550" cy="110" r="4" fill="#999"/><circle cx="565" cy="110" r="4" fill="#999"/><circle cx="580" cy="110" r="4" fill="#999"/><rect width="140" height="80" x="610" y="70" fill="none" stroke="#424242" stroke-width="2" rx="4"/><text x="680" y="95" fill="#424242" font-family="sans-serif" font-size="14" font-weight="bold" text-anchor="middle">End (EOX)</text><text x="680" y="115" fill="#999" font-family="monospace" font-size="16" text-anchor="middle">1111 0111</text><text x="680" y="135" fill="#999" font-family="monospace" font-size="14" text-anchor="middle">(F7 h)</text><path fill="none" stroke="#999" stroke-width="2" d="M200 165v10h380v-10"/><text x="390" y="195" fill="#999" font-family="sans-serif" font-size="14" font-weight="bold" text-anchor="middle">Data Bytes (MSB must be 0)</text><path stroke="#424242" stroke-dasharray="4 4" stroke-width="1.5" d="M40 225h710"/><text x="395" y="245" fill="#424242" font-family="sans-serif" font-size="14" font-weight="bold" text-anchor="middle">Variable Length Message (Vendor Specific)</text></svg>