<svg xmlns="http://www.w3.org/2000/svg" viewBox="0 0 730 230" width="730" height="230"><rect width="100%" height="100%" fill="#fff"/><path stroke="#999" stroke-dasharray="6 6" d="M365 70v130"/><text x="120" y="-45" fill="#424242" font-family="sans-serif" font-size="16" font-weight="bold" text-anchor="middle" transform="translate(60 110)">Status Byte</text><path fill="none" stroke="#999" stroke-width="1.5" d="M60 110h240v40H60z"/><path stroke="#999" stroke-width="1.5" d="M90 110v40m30-40v40m30-40v40m30-40v40m30-40v40m30-40v40m30-40v40"/><path fill="none" stroke="#424242" stroke-width="3" d="M60 110h30v40H60z"/><text x="15" y="27" fill="#424242" font-family="monospace" font-size="20" font-weight="bold" text-anchor="middle" transform="translate(60 110)">1</text><path fill="none" stroke="#424242" stroke-width="1.5" d="M75 102V92"/><text x="15" y="-25" fill="#424242" font-family="sans-serif" font-size="12" font-weight="bold" text-anchor="middle" transform="translate(60 110)">MSB</text><path fill="none" stroke="#999" stroke-width="1.5" d="M90 158v10h210v-10"/><text x="135" y="76" fill="#999" font-family="sans-serif" font-size="14" text-anchor="middle" transform="translate(60 110)">7-bit Status Information</text><text x="120" y="-45" fill="#424242" font-family="sans-serif" font-size="16" font-weight="bold" text-anchor="middle" transform="translate(430 110)">Data Byte</text><path fill="none" stroke="#999" stroke-width="1.5" d="M430 110h240v40H430z"/><path stroke="#999" stroke-width="1.5" d="M460 110v40m30-40v40m30-40v40m30-40v40m30-40v40m30-40v40m30-40v40"/><path fill="none" stroke="#424242" stroke-width="3" d="M430 110h30v40h-30z"/><text x="15" y="27" fill="#424242" font-family="monospace" font-size="20" font-weight="bold" text-anchor="middle" transform="translate(430 110)">0</text><path fill="none" stroke="#424242" stroke-width="1.5" d="M445 102V92"/><text x="15" y="-25" fill="#424242" font-family="sans-serif" font-size="12" font-weight="bold" text-anchor="middle" transform="translate(430 110)">MSB</text><path fill="none" stroke="#999" stroke-width="1.5" d="M460 158v10h210v-10"/><text x="135" y="76" fill="#999" font-family="sans-serif" font-size="14" text-anchor="middle" transform="translate(430 110)">7-bit Data Value</text></svg>