<svg xmlns="http://www.w3.org/2000/svg" viewBox="0 0 800 340" width="800" height="340"><rect width="100%" height="100%" fill="#fff"/><path stroke="#999" stroke-width="2" d="M60 130h680"/><path fill="#999" d="m730 125 10 5-10 5z"/><text x="730" y="150" fill="#999" font-family="sans-serif" font-size="12" text-anchor="end">Actual Time</text><path stroke="#999" stroke-dasharray="4 4" stroke-width="2" d="M150 80v70"/><circle cx="150" cy="130" r="5" fill="#999"/><text x="150" y="165" fill="#999" font-family="sans-serif" font-size="12" text-anchor="middle">Previous Event</text><path stroke="#424242" stroke-dasharray="4 4" stroke-width="2" d="M300 80v70"/><path fill="#424242" d="m295 120 5 10 5-10z"/><text x="300" y="165" fill="#424242" font-family="sans-serif" font-size="14" font-weight="bold" text-anchor="middle">Note On</text><path stroke="#424242" stroke-dasharray="4 4" stroke-width="2" d="M650 80v70"/><path fill="#424242" d="m645 140 5-10 5 10z"/><text x="650" y="165" fill="#424242" font-family="sans-serif" font-size="14" font-weight="bold" text-anchor="middle">Note Off</text><path fill="none" stroke="#999" stroke-width="2" d="M150 90V80h150v10"/><text x="225" y="70" fill="#999" font-family="sans-serif" font-size="14" font-weight="bold" text-anchor="middle">Delta Time</text><path fill="none" stroke="#424242" stroke-width="2" d="M300 90V80h350v10"/><text x="475" y="48" fill="#424242" font-family="sans-serif" font-size="16" font-weight="bold" text-anchor="middle">Note Length</text><text x="475" y="75" fill="#424242" font-family="sans-serif" font-size="12" text-anchor="middle">Calculated from Delta Time(s)</text><text x="400" y="220" fill="#999" font-family="sans-serif" font-size="14" font-weight="bold" text-anchor="middle">MTrk Sequential Data Stream</text><path stroke="#999" stroke-dasharray="2 2" d="M80 230h640"/><rect width="50" height="40" x="210" y="250" fill="none" stroke="#999" stroke-width="2" rx="3"/><text x="235" y="275" fill="#999" font-family="sans-serif" font-size="14" font-weight="bold" text-anchor="middle">Δt</text><rect width="80" height="40" x="260" y="250" fill="none" stroke="#424242" stroke-width="2" rx="3"/><text x="300" y="275" fill="#424242" font-family="sans-serif" font-size="14" font-weight="bold" text-anchor="middle">Note On</text><circle cx="380" cy="270" r="3" fill="#999"/><circle cx="400" cy="270" r="3" fill="#999"/><circle cx="420" cy="270" r="3" fill="#999"/><text x="400" y="305" fill="#999" font-family="sans-serif" font-size="11" text-anchor="middle">(Other events may exist)</text><rect width="100" height="40" x="460" y="250" fill="none" stroke="#424242" stroke-width="3" rx="3"/><text x="510" y="275" fill="#424242" font-family="sans-serif" font-size="16" font-weight="bold" text-anchor="middle">Sum of Δt</text><rect width="80" height="40" x="560" y="250" fill="none" stroke="#424242" stroke-width="2" rx="3"/><text x="600" y="275" fill="#424242" font-family="sans-serif" font-size="14" font-weight="bold" text-anchor="middle">Note Off</text><path fill="none" stroke="#999" stroke-dasharray="3 3" stroke-width="1.5" d="M300 240v-65"/><path fill="none" stroke="#424242" stroke-dasharray="3 3" stroke-width="1.5" d="M510 240q0-60 135-85"/><path fill="#424242" d="m640 158 10-8h-8z"/></svg>