<svg xmlns="http://www.w3.org/2000/svg" viewBox="0 0 800 280" width="800" height="280"><rect width="100%" height="100%" fill="#fff"/><path fill="none" stroke="#999" stroke-dasharray="10 10" stroke-width="3" d="M70 110q330-80 660 0"/><path fill="#999" d="m720 105 10 5-10 5z"/><text x="400" y="40" fill="#999" font-family="sans-serif" font-size="16" text-anchor="middle">Evolution of MIDI Scope</text><g transform="translate(50 130)"><rect width="220" height="128" fill="none" stroke="#999" stroke-width="2" rx="4"/><text x="110" y="25" fill="#424242" font-family="sans-serif" font-size="16" font-weight="bold" text-anchor="middle">1. Early MIDI</text><text x="110" y="45" fill="#999" font-family="sans-serif" font-size="12" text-anchor="middle">Physical Cable &amp; Protocol</text><rect width="80" height="40" x="20" y="60" fill="none" stroke="#999" stroke-width="1.5" rx="3"/><path fill="#999" d="M30 68h60v8H30z"/><text x="60" y="112" fill="#999" font-family="sans-serif" font-size="10" text-anchor="middle">Sequencer</text><path fill="none" stroke="#999" stroke-width="2" d="M100 80h20"/><circle cx="110" cy="80" r="10" fill="#424242"/><circle cx="110" cy="80" r="8" fill="#fff"/><circle cx="110" cy="76" r="1" fill="#424242"/><circle cx="106" cy="80" r="1" fill="#424242"/><circle cx="114" cy="80" r="1" fill="#424242"/><circle cx="110" cy="84" r="1" fill="#424242"/><rect width="70" height="40" x="130" y="60" fill="none" stroke="#999" stroke-width="1.5" rx="3"/><text x="165" y="85" fill="#999" font-family="sans-serif" font-size="10" text-anchor="middle">Sound</text><text x="165" y="112" fill="#999" font-family="sans-serif" font-size="10" text-anchor="middle">Module</text><text x="110" y="70" fill="#424242" font-family="sans-serif" font-size="14" text-anchor="middle">♪</text><path stroke="#424242" stroke-width="1.5" d="m105 75 10 10m-10 0 10-10"/></g><g transform="translate(280 130)"><rect width="220" height="128" fill="none" stroke="#999" stroke-width="2" rx="4"/><text x="110" y="25" fill="#424242" font-family="sans-serif" font-size="16" font-weight="bold" text-anchor="middle">2. Transition</text><text x="110" y="45" fill="#999" font-family="sans-serif" font-size="12" text-anchor="middle">Computer Controls Hardware</text><rect width="80" height="40" x="20" y="60" fill="none" stroke="#999" stroke-width="1.5" rx="3"/><path fill="none" stroke="#999" d="M30 68h60v24H30z"/><path fill="#999" d="M35 72h50v4H35z"/><text x="60" y="112" fill="#999" font-family="sans-serif" font-size="10" text-anchor="middle">Computer</text><rect width="20" height="10" x="100" y="75" fill="#424242" rx="1"/><path stroke="#999" stroke-width="2" d="M120 80h10"/><rect width="70" height="40" x="130" y="60" fill="none" stroke="#999" stroke-width="1.5" rx="3"/><circle cx="150" cy="70" r="3" fill="#999"/><circle cx="160" cy="70" r="3" fill="#999"/><path fill="#999" d="M145 80h30v10h-30z"/><text x="165" y="112" fill="#999" font-family="sans-serif" font-size="10" text-anchor="middle">Sound</text><text x="165" y="122" fill="#999" font-family="sans-serif" font-size="10" text-anchor="middle">Module</text><text x="110" y="70" fill="#424242" font-family="sans-serif" font-size="14" text-anchor="middle">♪</text></g><g transform="translate(530 130)"><rect width="220" height="128" fill="none" stroke="#999" stroke-width="2" rx="4"/><text x="110" y="25" fill="#424242" font-family="sans-serif" font-size="16" font-weight="bold" text-anchor="middle">3. Modern MIDI</text><text x="110" y="45" fill="#999" font-family="sans-serif" font-size="12" text-anchor="middle">Integrated Software Control</text><rect width="80" height="40" x="20" y="60" fill="none" stroke="#999" stroke-width="1.5" rx="3"/><path fill="none" stroke="#999" d="M30 68h60v24H30z"/><path fill="#999" d="M35 72h22v16H35z"/><path fill="none" stroke="#424242" d="M63 72h22v16H63z"/><text x="60" y="112" fill="#999" font-family="sans-serif" font-size="10" text-anchor="middle">Computer</text><path stroke="#424242" stroke-dasharray="3 3" stroke-width="2" d="M100 80h20"/><path fill="#424242" d="m115 77 5 3-5 3z"/><rect width="80" height="40" x="120" y="60" fill="none" stroke="#999" stroke-width="1.5" rx="3"/><path fill="none" stroke="#999" d="M130 68h60v24h-60z"/><text x="160" y="85" fill="#999" font-family="sans-serif" font-size="10" text-anchor="middle">Sound</text><text x="160" y="112" fill="#999" font-family="sans-serif" font-size="10" text-anchor="middle">Virtual</text><text x="160" y="122" fill="#999" font-family="sans-serif" font-size="10" text-anchor="middle">Instrument</text><text x="110" y="70" fill="#424242" font-family="sans-serif" font-size="14" text-anchor="middle">♪</text></g></svg>
