<svg version="1.0" xmlns="http://www.w3.org/2000/svg" width="1280.000000pt" height="1059.000000pt" viewBox="0 0 1280.000000 1059.000000" preserveAspectRatio="xMidYMid meet"><g transform="translate(0.000000,1059.000000) scale(0.100000,-0.100000)" fill="rgba(0 0 255 / 60%)" stroke="none"><path d="M7506 10339 c-6 -205 -5 -253 6 -260 7 -5 63 -9 124 -9 242 0 601
-43 889 -106 995 -216 1895 -747 2569 -1514 629 -715 1033 -1605 1150 -2535 50 -391 50 -840 0 -1230 -177 -1396 -977 -2655 -2174 -3421 -694 -445 -1543 -714 -2330 -740 -91 -2 -189 -7 -217 -10 l-53 -5 0 -256 0 -256 190 7 c777 28 1462 195 2138 522 1085 524 1952 1389 2471 2466 647 1342 704 2870 158 4258 -255 647 -650 1251 -1156 1763 -850 863 -1962 1405 -3161 1542 -147 16 -426 35 -531 35 l-66 0 -7 -251z"/><path d="M5139 9064 c-767 -742 -1554 -1502 -1747 -1689 l-352 -340 -1413 -5 -1412 -5 -47 -22 c-63 -29 -123 -93 -148 -159 -20 -55 -20 -63 -18 -1582 l3 -1527 31 -55 c17 -30 50 -70 73 -87 86 -66 2 -63 1530 -64 l1386 0 1755 -1709 1755 -1709 3 2575 c1 1416 1 3733 0 5150 l-3 2577 -1396 -1349z"/><path d="M7517 8698 c-4 -29 -7 -78 -7 -109 l0 -56 138 -7 c232 -11 426 -38 650 -92 1230 -297 2189 -1297 2436 -2539 53 -266 61 -351 61 -655 -1 -275 -7 -353 -45 -570 -101 -571 -349 -1099 -728 -1550 -102 -122 -330 -344 -452 -441 -530 -422 -1192 -681 -1822 -714 -62 -3 -146 -8 -185 -11 l-73 -6 0 -105 0 -106 178 6 c372 13 778 98 1129 237 1055 420 1847 1323 2117 2415 74 299 101 529 100 855 0 463 -68 829 -233 1263 -364 955 -1174 1726 -2156 2052 -330 110 -596 158 -991 180 l-111 6 -6 -53z"/><path d="M7210 6933 l0 -69 133 -12 c162 -15 251 -33 386 -78 540 -179 953 -639 1078 -1199 30 -136 42 -410 24 -550 -74 -577 -449 -1072 -984 -1300 -174 -75 -389 -122 -569 -126 l-78 -2 0 -73 0 -74 50 0 c139 0 362 39 525 91 124 40 351 156 464 236 242 174 442 411 571 678 241 499 238 1062 -7 1563 -273 559 -864 951 -1475 979 l-118 6 0 -70z"/>
</g></svg>
