<svg xmlns="http://www.w3.org/2000/svg" viewBox="0 0 700 380" width="700" height="380"><rect width="100%" height="100%" fill="#fff"/><text x="350" y="40" fill="#424242" font-family="sans-serif" font-size="22" font-weight="bold" text-anchor="middle">Format 1</text><text x="350" y="65" fill="#999" font-family="sans-serif" font-size="14" text-anchor="middle">Data is separated into multiple tracks</text><rect width="600" height="60" x="50" y="90" fill="none" stroke="#999" stroke-width="2" rx="4"/><text x="70" y="115" fill="#424242" font-family="sans-serif" font-size="14" font-weight="bold">MTrk (Conductor Track / Tempo, Time Signature)</text><path stroke="#999" stroke-width="2" d="M70 130h560"/><path fill="#999" d="m620 125 10 5-10 5zm-500-5h15l-7.5 20zm180 0h15l-7.5 20z"/><rect width="600" height="60" x="50" y="160" fill="none" stroke="#999" stroke-width="2" rx="4"/><text x="70" y="185" fill="#424242" font-family="sans-serif" font-size="14" font-weight="bold">MTrk (Track 1 / e.g. Piano)</text><path stroke="#999" stroke-width="2" d="M70 200h560"/><path fill="#999" d="m620 195 10 5-10 5z"/><circle cx="120" cy="200" r="8" fill="#424242"/><circle cx="260" cy="200" r="8" fill="#424242"/><circle cx="450" cy="200" r="8" fill="#424242"/><rect width="600" height="60" x="50" y="230" fill="none" stroke="#999" stroke-width="2" rx="4"/><text x="70" y="255" fill="#424242" font-family="sans-serif" font-size="14" font-weight="bold">MTrk (Track 2 / e.g. Bass)</text><path stroke="#999" stroke-width="2" d="M70 270h560"/><path fill="#999" d="m620 265 10 5-10 5z"/><circle cx="210" cy="270" r="8" fill="#999"/><circle cx="380" cy="270" r="8" fill="#999"/><circle cx="560" cy="270" r="8" fill="#999"/><rect width="600" height="60" x="50" y="300" fill="none" stroke="#999" stroke-width="2" rx="4"/><text x="70" y="325" fill="#424242" font-family="sans-serif" font-size="14" font-weight="bold">MTrk (Track 3 / e.g. Drums)</text><path stroke="#999" stroke-width="2" d="M70 340h560"/><path fill="#999" d="m620 335 10 5-10 5z"/><path fill="none" stroke="#424242" stroke-width="2" d="M140 332h16v16h-16zm160 0h16v16h-16zm180 0h16v16h-16z"/></svg>